<svg id="visual" viewBox="0 0 1920 1090" width="1920" height="1090" xmlns="http://www.w3.org/2000/svg" xmlns:xlink="http://www.w3.org/1999/xlink" version="1.1"><rect x="0" y="0" width="1920" height="1090" fill="#f0ece4"></rect><defs><linearGradient id="grad1_0" x1="43.2%" y1="0%" x2="100%" y2="100%"><stop offset="14.77064220183486%" stop-color="#1f1f26" stop-opacity="1"></stop><stop offset="85.22935779816515%" stop-color="#1f1f26" stop-opacity="1"></stop></linearGradient></defs><defs><linearGradient id="grad1_1" x1="43.2%" y1="0%" x2="100%" y2="100%"><stop offset="14.77064220183486%" stop-color="#1f1f26" stop-opacity="1"></stop><stop offset="85.22935779816515%" stop-color="#474147" stop-opacity="1"></stop></linearGradient></defs><defs><linearGradient id="grad1_2" x1="43.2%" y1="0%" x2="100%" y2="100%"><stop offset="14.77064220183486%" stop-color="#71676a" stop-opacity="1"></stop><stop offset="85.22935779816515%" stop-color="#474147" stop-opacity="1"></stop></linearGradient></defs><defs><linearGradient id="grad1_3" x1="43.2%" y1="0%" x2="100%" y2="100%"><stop offset="14.77064220183486%" stop-color="#71676a" stop-opacity="1"></stop><stop offset="85.22935779816515%" stop-color="#9c908f" stop-opacity="1"></stop></linearGradient></defs><defs><linearGradient id="grad1_4" x1="43.2%" y1="0%" x2="100%" y2="100%"><stop offset="14.77064220183486%" stop-color="#c6bdb8" stop-opacity="1"></stop><stop offset="85.22935779816515%" stop-color="#9c908f" stop-opacity="1"></stop></linearGradient></defs><defs><linearGradient id="grad1_5" x1="43.2%" y1="0%" x2="100%" y2="100%"><stop offset="14.77064220183486%" stop-color="#c6bdb8" stop-opacity="1"></stop><stop offset="85.22935779816515%" stop-color="#f0ece4" stop-opacity="1"></stop></linearGradient></defs><defs><linearGradient id="grad2_0" x1="0%" y1="0%" x2="56.8%" y2="100%"><stop offset="14.77064220183486%" stop-color="#1f1f26" stop-opacity="1"></stop><stop offset="85.22935779816515%" stop-color="#1f1f26" stop-opacity="1"></stop></linearGradient></defs><defs><linearGradient id="grad2_1" x1="0%" y1="0%" x2="56.8%" y2="100%"><stop offset="14.77064220183486%" stop-color="#474147" stop-opacity="1"></stop><stop offset="85.22935779816515%" stop-color="#1f1f26" stop-opacity="1"></stop></linearGradient></defs><defs><linearGradient id="grad2_2" x1="0%" y1="0%" x2="56.8%" y2="100%"><stop offset="14.77064220183486%" stop-color="#474147" stop-opacity="1"></stop><stop offset="85.22935779816515%" stop-color="#71676a" stop-opacity="1"></stop></linearGradient></defs><defs><linearGradient id="grad2_3" x1="0%" y1="0%" x2="56.8%" y2="100%"><stop offset="14.77064220183486%" stop-color="#9c908f" stop-opacity="1"></stop><stop offset="85.22935779816515%" stop-color="#71676a" stop-opacity="1"></stop></linearGradient></defs><defs><linearGradient id="grad2_4" x1="0%" y1="0%" x2="56.8%" y2="100%"><stop offset="14.77064220183486%" stop-color="#9c908f" stop-opacity="1"></stop><stop offset="85.22935779816515%" stop-color="#c6bdb8" stop-opacity="1"></stop></linearGradient></defs><defs><linearGradient id="grad2_5" x1="0%" y1="0%" x2="56.8%" y2="100%"><stop offset="14.77064220183486%" stop-color="#f0ece4" stop-opacity="1"></stop><stop offset="85.22935779816515%" stop-color="#c6bdb8" stop-opacity="1"></stop></linearGradient></defs><g transform="translate(1920, 0)"><path d="M0 654C-45.7 579.7 -91.4 505.5 -123.2 459.8C-155 414.1 -172.8 396.9 -239.5 414.8C-306.2 432.7 -421.6 485.7 -462.4 462.4C-503.3 439.2 -469.6 339.8 -485.8 280.5C-502.1 221.2 -568.3 202.1 -604.7 162C-641 122 -647.5 61 -654 0L0 0Z" fill="#dbd4cd"></path><path d="M0 545C-38.1 483.1 -76.2 421.2 -102.7 383.2C-129.2 345.1 -144 330.8 -199.6 345.7C-255.1 360.6 -351.3 404.7 -385.4 385.4C-419.4 366 -391.3 283.2 -404.9 233.8C-418.4 184.3 -473.6 168.4 -503.9 135C-534.2 101.6 -539.6 50.8 -545 0L0 0Z" fill="#b1a6a3"></path><path d="M0 436C-30.5 386.5 -60.9 337 -82.1 306.5C-103.3 276.1 -115.2 264.6 -159.7 276.6C-204.1 288.5 -281.1 323.8 -308.3 308.3C-335.5 292.8 -313.1 226.5 -323.9 187C-334.7 147.5 -378.9 134.7 -403.1 108C-427.3 81.3 -431.7 40.7 -436 0L0 0Z" fill="#877b7d"></path><path d="M0 327C-22.9 289.9 -45.7 252.7 -61.6 229.9C-77.5 207 -86.4 198.5 -119.7 207.4C-153.1 216.4 -210.8 242.8 -231.2 231.2C-251.7 219.6 -234.8 169.9 -242.9 140.3C-251 110.6 -284.2 101 -302.3 81C-320.5 61 -323.8 30.5 -327 0L0 0Z" fill="#5c5359"></path><path d="M0 218C-15.2 193.2 -30.5 168.5 -41.1 153.3C-51.7 138 -57.6 132.3 -79.8 138.3C-102.1 144.2 -140.5 161.9 -154.1 154.1C-167.8 146.4 -156.5 113.3 -161.9 93.5C-167.4 73.7 -189.4 67.4 -201.6 54C-213.7 40.7 -215.8 20.3 -218 0L0 0Z" fill="#332f36"></path><path d="M0 109C-7.6 96.6 -15.2 84.2 -20.5 76.6C-25.8 69 -28.8 66.2 -39.9 69.1C-51 72.1 -70.3 80.9 -77.1 77.1C-83.9 73.2 -78.3 56.6 -81 46.8C-83.7 36.9 -94.7 33.7 -100.8 27C-106.8 20.3 -107.9 10.2 -109 0L0 0Z" fill="#1f1f26"></path></g><g transform="translate(0, 1090)"><path d="M0 -654C56.1 -638 112.2 -621.9 157.4 -587.3C202.5 -552.7 236.6 -499.4 262.5 -454.7C288.4 -409.9 306.2 -373.6 356.4 -356.4C406.6 -339.2 489.3 -341.2 542.1 -313C595 -284.8 618 -226.5 631.7 -169.3C645.4 -112.1 649.7 -56 654 0L0 0Z" fill="#dbd4cd"></path><path d="M0 -545C46.8 -531.6 93.5 -518.3 131.1 -489.4C168.7 -460.5 197.1 -416.2 218.7 -378.9C240.4 -341.6 255.1 -311.3 297 -297C338.8 -282.7 407.7 -284.3 451.8 -260.8C495.8 -237.3 515 -188.7 526.4 -141.1C537.8 -93.4 541.4 -46.7 545 0L0 0Z" fill="#b1a6a3"></path><path d="M0 -436C37.4 -425.3 74.8 -414.6 104.9 -391.5C135 -368.4 157.7 -333 175 -303.1C192.3 -273.3 204.1 -249 237.6 -237.6C271.1 -226.1 326.2 -227.5 361.4 -208.7C396.7 -189.9 412 -151 421.1 -112.8C430.3 -74.7 433.1 -37.4 436 0L0 0Z" fill="#877b7d"></path><path d="M0 -327C28.1 -319 56.1 -311 78.7 -293.6C101.2 -276.3 118.3 -249.7 131.2 -227.3C144.2 -204.9 153.1 -186.8 178.2 -178.2C203.3 -169.6 244.6 -170.6 271.1 -156.5C297.5 -142.4 309 -113.2 315.9 -84.6C322.7 -56 324.8 -28 327 0L0 0Z" fill="#5c5359"></path><path d="M0 -218C18.7 -212.7 37.4 -207.3 52.5 -195.8C67.5 -184.2 78.9 -166.5 87.5 -151.6C96.1 -136.6 102.1 -124.5 118.8 -118.8C135.5 -113.1 163.1 -113.7 180.7 -104.3C198.3 -94.9 206 -75.5 210.6 -56.4C215.1 -37.4 216.6 -18.7 218 0L0 0Z" fill="#332f36"></path><path d="M0 -109C9.4 -106.3 18.7 -103.7 26.2 -97.9C33.7 -92.1 39.4 -83.2 43.7 -75.8C48.1 -68.3 51 -62.3 59.4 -59.4C67.8 -56.5 81.5 -56.9 90.4 -52.2C99.2 -47.5 103 -37.7 105.3 -28.2C107.6 -18.7 108.3 -9.3 109 0L0 0Z" fill="#1f1f26"></path></g></svg>