<?xml version="1.0" standalone="no"?>
<svg xmlns="http://www.w3.org/2000/svg" viewBox="0 0 218.54062999999996 53" width="218.54062999999996" height="53"><rect fill="none" stroke="#717691" stroke-width="3" width="215.54062999999996" height="50" x="1.5" y="1.5"></rect><g fill="#918046" color="#918046" transform="translate(12, 12.001) scale(0.29)"><g transform="translate(-4.968, 7.398)"><svg width="65.947" height="100.0" x="4.968" y="-7.398" viewBox="4.968 -7.398 65.947 100"><path d="M70.915,59.625c0,18.25-14.875,32.977-32.97,32.977c-18.25,0-32.977-14.727-32.977-32.977  c0-9.205,3.683-17.485,9.816-23.466V15.762c0-12.73,10.433-23.16,23.161-23.16s23.006,10.43,23.006,23.16v20.397  C67.084,42.14,70.915,50.42,70.915,59.625z M24.754,55.941H14.327l-1.536,3.684l1.536,3.68h10.427V55.941z M31.195,47.813  l-7.515-7.514l-3.683,1.379l-1.53,3.837l7.515,7.514L31.195,47.813z M25.982,66.066l-7.515,7.668l1.53,3.681l3.683,1.379  l7.515-7.515L25.982,66.066z M27.209,28.49c6.744-2.455,14.11-2.455,21.316,0V15.759c0-5.827-4.756-10.735-10.581-10.735  c-5.984,0-10.735,4.908-10.735,10.735V28.49z M41.473,46.588v-10.43l-3.683-1.533l-3.683,1.533v10.43H41.473z M34.107,72.507v10.427  l3.683,1.536l3.683-1.536V72.507H34.107L34.107,72.507z M49.445,53.029l7.515-7.514l-1.376-3.684l-3.838-1.533l-7.515,7.514  L49.445,53.029z M44.231,71.279l7.515,7.515l3.838-1.379l1.376-3.681l-7.515-7.668L44.231,71.279z M50.673,63.305h10.427l1.536-3.68  l-1.536-3.684H50.673V63.305z"></path></svg></g></g><line x1="41.625" y1="0" x2="41.625" y2="100%" stroke="#717691" stroke-width="3"></line><path fill="#918046" fill-rule="nonzero" d="M0 14.23L0 14.23L0.77 13.15Q2.52 14.16 4.49 14.16L4.49 14.16Q6 14.16 6.86 13.45Q7.73 12.74 7.73 11.45L7.73 11.45Q7.73 9.24 4.82 8.23L4.82 8.23Q2.35 7.39 1.25 6.36Q0.14 5.33 0.14 3.84L0.14 3.84Q0.14 2.06 1.54 0.98L1.54 0.98Q2.81 0 4.87 0L4.87 0Q7.13 0 8.98 1.25L8.98 1.25L8.18 2.33Q6.70 1.54 4.99 1.54L4.99 1.54Q3.60 1.54 2.78 2.14Q1.97 2.74 1.97 3.77L1.97 3.77Q1.97 5.38 4.46 6.31L4.46 6.31Q7.30 7.39 8.44 8.53Q9.58 9.67 9.58 11.50L9.58 11.50Q9.58 13.58 7.97 14.78L7.97 14.78Q6.65 15.77 4.75 15.77L4.75 15.77Q2.38 15.77 0 14.23ZM21.96 8.98L21.96 15.48L20.38 15.48L20.38 9.10Q20.38 5.69 17.35 5.69L17.35 5.69Q16.54 5.69 15.67 6.11Q14.81 6.53 14.40 7.13L14.40 7.13L14.40 15.48L12.79 15.48L12.79 0.84L14.40 0L14.40 5.74Q15.89 4.30 17.86 4.30L17.86 4.30Q21.96 4.30 21.96 8.98L21.96 8.98ZM33.58 8.86L33.58 15.48L32.38 15.48L32.14 14.30Q30.67 15.77 28.49 15.77L28.49 15.77Q26.83 15.77 25.85 14.84Q24.86 13.92 24.86 12.38L24.86 12.38Q24.86 8.64 30.34 8.64L30.34 8.64L31.99 8.64L31.99 8.50Q31.99 5.64 29.21 5.64L29.21 5.64Q27.62 5.64 26.16 6.70L26.16 6.70L25.63 5.81Q27.29 4.30 29.66 4.30L29.66 4.30Q31.56 4.30 32.57 5.47Q33.58 6.65 33.58 8.86L33.58 8.86ZM31.99 12.77L31.99 9.82L30.53 9.82Q26.59 9.82 26.59 12.24L26.59 12.24Q26.59 13.27 27.20 13.86Q27.82 14.45 28.92 14.45L28.92 14.45Q29.88 14.45 30.77 13.97Q31.66 13.49 31.99 12.77L31.99 12.77ZM44.38 5.52L44.38 5.52L43.06 6.43Q42.24 5.71 41.30 5.71L41.30 5.71Q39.94 5.71 38.88 7.13L38.88 7.13L38.88 15.48L37.27 15.48L37.27 4.58L38.64 4.58L38.78 5.74L38.83 5.74Q40.25 4.30 41.74 4.30L41.74 4.30Q43.49 4.30 44.38 5.52ZM54.94 10.06L54.94 10.58L47.16 10.58Q47.26 12.34 48.37 13.39Q49.49 14.45 51.26 14.45L51.26 14.45Q52.75 14.45 54.17 13.56L54.17 13.56L54.72 14.52Q53.14 15.77 50.90 15.77L50.90 15.77Q48.31 15.77 46.78 14.06L46.78 14.06Q45.36 12.53 45.36 10.08L45.36 10.08Q45.36 7.54 46.87 5.83L46.87 5.83Q48.24 4.30 50.26 4.30L50.26 4.30Q52.68 4.30 53.95 6.26L53.95 6.26Q54.94 7.80 54.94 10.06L54.94 10.06ZM47.14 9.29L47.14 9.29L53.28 9.29Q53.21 7.54 52.43 6.55Q51.65 5.57 50.28 5.57L50.28 5.57Q48.98 5.57 48.11 6.60Q47.23 7.63 47.14 9.29ZM60.02 15.48L58.25 15.48L58.25 0.29Q60.38 0 61.94 0L61.94 0Q67.32 0 67.32 4.61L67.32 4.61Q67.32 6.94 65.81 8.18L65.81 8.18Q64.44 9.29 62.14 9.29L62.14 9.29Q61.10 9.29 60.02 9.14L60.02 9.14L60.02 15.48ZM60.02 1.58L60.02 1.58L60.02 7.70Q60.89 7.85 62.04 7.85L62.04 7.85Q65.45 7.85 65.45 4.61L65.45 4.61Q65.45 1.42 61.94 1.42L61.94 1.42Q60.84 1.42 60.02 1.58ZM77.90 8.86L77.90 15.48L76.70 15.48L76.46 14.30Q75.00 15.77 72.82 15.77L72.82 15.77Q71.16 15.77 70.18 14.84Q69.19 13.92 69.19 12.38L69.19 12.38Q69.19 8.64 74.66 8.64L74.66 8.64L76.32 8.64L76.32 8.50Q76.32 5.64 73.54 5.64L73.54 5.64Q71.95 5.64 70.49 6.70L70.49 6.70L69.96 5.81Q71.62 4.30 73.99 4.30L73.99 4.30Q75.89 4.30 76.90 5.47Q77.90 6.65 77.90 8.86L77.90 8.86ZM76.32 12.77L76.32 9.82L74.86 9.82Q70.92 9.82 70.92 12.24L70.92 12.24Q70.92 13.27 71.53 13.86Q72.14 14.45 73.25 14.45L73.25 14.45Q74.21 14.45 75.10 13.97Q75.98 13.49 76.32 12.77L76.32 12.77ZM87.84 5.33L87.31 6.22Q86.11 5.59 84.70 5.59L84.70 5.59Q83.74 5.59 83.20 6.01Q82.66 6.43 82.66 7.15L82.66 7.15Q82.66 7.92 83.15 8.34Q83.64 8.76 85.03 9.17L85.03 9.17Q87 9.77 87.77 10.51Q88.54 11.26 88.54 12.60L88.54 12.60Q88.54 14.02 87.47 14.89Q86.40 15.77 84.72 15.77L84.72 15.77Q82.51 15.77 80.88 14.57L80.88 14.57Q80.95 14.45 81.12 14.16L81.12 14.16Q81.29 13.85 81.41 13.68L81.41 13.68Q82.80 14.45 84.41 14.45L84.41 14.45Q86.93 14.45 86.93 12.55L86.93 12.55Q86.93 11.78 86.39 11.35Q85.85 10.92 84.38 10.54L84.38 10.54Q80.98 9.58 80.98 7.20L80.98 7.20Q80.98 5.93 81.97 5.11Q82.97 4.30 84.53 4.30L84.53 4.30Q86.38 4.30 87.84 5.33L87.84 5.33ZM97.56 5.33L97.03 6.22Q95.83 5.59 94.42 5.59L94.42 5.59Q93.46 5.59 92.92 6.01Q92.38 6.43 92.38 7.15L92.38 7.15Q92.38 7.92 92.87 8.34Q93.36 8.76 94.75 9.17L94.75 9.17Q96.72 9.77 97.49 10.51Q98.26 11.26 98.26 12.60L98.26 12.60Q98.26 14.02 97.19 14.89Q96.12 15.77 94.44 15.77L94.44 15.77Q92.23 15.77 90.60 14.57L90.60 14.57Q90.67 14.45 90.84 14.16L90.84 14.16Q91.01 13.85 91.13 13.68L91.13 13.68Q92.52 14.45 94.13 14.45L94.13 14.45Q96.65 14.45 96.65 12.55L96.65 12.55Q96.65 11.78 96.11 11.35Q95.57 10.92 94.10 10.54L94.10 10.54Q90.70 9.58 90.70 7.20L90.70 7.20Q90.70 5.93 91.69 5.11Q92.69 4.30 94.25 4.30L94.25 4.30Q96.10 4.30 97.56 5.33L97.56 5.33ZM107.76 6.53L105.10 15.48L103.37 15.48L99.77 4.58L101.50 4.58L104.23 13.61L106.85 4.58L108.70 4.58L111.19 13.61L113.93 4.58L115.66 4.58L112.03 15.48L110.30 15.48L107.76 6.53ZM127.42 10.06L127.42 10.06Q127.42 12.65 125.78 14.30L125.78 14.30Q124.32 15.77 122.18 15.77L122.18 15.77Q119.71 15.77 118.20 13.90L118.20 13.90Q116.93 12.31 116.93 10.06L116.93 10.06Q116.93 7.42 118.51 5.78L118.51 5.78Q119.95 4.30 122.18 4.30L122.18 4.30Q124.70 4.30 126.19 6.19L126.19 6.19Q127.42 7.78 127.42 10.06ZM118.66 10.06L118.66 10.06Q118.66 12.14 119.74 13.37L119.74 13.37Q120.70 14.45 122.16 14.45L122.16 14.45Q123.74 14.45 124.72 13.24Q125.69 12.02 125.69 10.06L125.69 10.06Q125.69 7.99 124.63 6.74L124.63 6.74Q123.67 5.59 122.18 5.59L122.18 5.59Q120.60 5.59 119.63 6.83Q118.66 8.06 118.66 10.06ZM137.54 5.52L137.54 5.52L136.22 6.43Q135.41 5.71 134.47 5.71L134.47 5.71Q133.10 5.71 132.05 7.13L132.05 7.13L132.05 15.48L130.44 15.48L130.44 4.58L131.81 4.58L131.95 5.74L132.00 5.74Q133.42 4.30 134.90 4.30L134.90 4.30Q136.66 4.30 137.54 5.52ZM148.42 15.48L147.22 15.48L146.95 14.33Q145.80 15.77 143.62 15.77L143.62 15.77Q141.24 15.77 139.85 13.99L139.85 13.99Q138.65 12.46 138.65 10.18L138.65 10.18Q138.65 7.30 140.33 5.66L140.33 5.66Q141.72 4.30 143.76 4.30L143.76 4.30Q145.68 4.30 146.83 5.57L146.83 5.57L146.83 0.91L148.42 0.02L148.42 15.48ZM146.83 12.58L146.83 12.58L146.83 7.37Q146.52 6.62 145.70 6.11Q144.89 5.59 143.98 5.59L143.98 5.59Q142.39 5.59 141.38 6.83Q140.38 8.06 140.38 10.01L140.38 10.01Q140.38 12.22 141.48 13.44L141.48 13.44Q142.44 14.45 143.88 14.45L143.88 14.45Q144.84 14.45 145.64 13.93Q146.45 13.42 146.83 12.58Z" transform="translate(55.125 18.616)"></path></svg>